<svg width="1280" height="840" viewBox="0 0 1280 840" fill="none" xmlns="http://www.w3.org/2000/svg">
  <rect width="1280" height="840" rx="40" fill="#e8dfcf"/>
  <rect x="56" y="56" width="1168" height="728" rx="28" fill="#f7f2e8" stroke="#d7c8ae"/>
  <rect x="92" y="92" width="1096" height="92" rx="20" fill="#fdf9f1"/>
  <text x="120" y="126" fill="#7d6036" font-size="18" font-family="Georgia, serif" letter-spacing="3">DISTILL VOICE COMPANION</text>
  <text x="120" y="164" fill="#23190f" font-size="42" font-family="Georgia, serif">Read, speak, insert.</text>
  <rect x="92" y="220" width="652" height="504" rx="24" fill="#fffdf8" stroke="#dfd1bb"/>
  <rect x="776" y="220" width="412" height="504" rx="24" fill="#faf4e8" stroke="#dfd1bb"/>
  <rect x="124" y="272" width="160" height="52" rx="26" fill="#6d4720"/>
  <text x="166" y="305" fill="#f9f0e5" font-size="24" font-family="Helvetica, Arial, sans-serif">Record</text>
  <rect x="304" y="272" width="156" height="52" rx="26" fill="#eadfcf"/>
  <text x="348" y="305" fill="#4a351c" font-size="24" font-family="Helvetica, Arial, sans-serif">Stop</text>
  <rect x="480" y="272" width="186" height="52" rx="26" fill="#eadfcf"/>
  <text x="510" y="305" fill="#4a351c" font-size="24" font-family="Helvetica, Arial, sans-serif">Ask Distill</text>
  <rect x="124" y="356" width="588" height="92" rx="18" fill="#f1e8da"/>
  <text x="150" y="390" fill="#8c6b41" font-size="14" font-family="Helvetica, Arial, sans-serif" letter-spacing="2">STATUS</text>
  <text x="150" y="428" fill="#372717" font-size="28" font-family="Georgia, serif">Listening for a question about the current paragraph.</text>
  <rect x="124" y="480" width="588" height="212" rx="18" fill="#fffdfa" stroke="#e2d7c5"/>
  <text x="150" y="520" fill="#8c6b41" font-size="14" font-family="Helvetica, Arial, sans-serif" letter-spacing="2">LIVE TRANSCRIPT</text>
  <text x="150" y="570" fill="#322417" font-size="28" font-family="Georgia, serif">Connect this idea to Karpathy's skills repo and</text>
  <text x="150" y="608" fill="#322417" font-size="28" font-family="Georgia, serif">tell me what Distill should steal for reading workflows.</text>
  <rect x="808" y="260" width="348" height="100" rx="18" fill="#fdf8ee" stroke="#e1d4c0"/>
  <text x="832" y="296" fill="#8b6d41" font-size="14" font-family="Helvetica, Arial, sans-serif" letter-spacing="2">ACTIVE NOTE</text>
  <text x="832" y="336" fill="#322417" font-size="26" font-family="Georgia, serif">what-to-do.md</text>
  <rect x="808" y="390" width="348" height="130" rx="18" fill="#fdf8ee" stroke="#e1d4c0"/>
  <text x="832" y="426" fill="#8b6d41" font-size="14" font-family="Helvetica, Arial, sans-serif" letter-spacing="2">SELECTION</text>
  <text x="832" y="468" fill="#322417" font-size="22" font-family="Georgia, serif">“The most impressive thing humans can do is to think.”</text>
  <rect x="808" y="548" width="348" height="144" rx="18" fill="#fffdf8" stroke="#d7c7af"/>
  <text x="832" y="584" fill="#8b6d41" font-size="14" font-family="Helvetica, Arial, sans-serif" letter-spacing="2">RESPONSE PREVIEW</text>
  <text x="832" y="628" fill="#322417" font-size="22" font-family="Georgia, serif">Insight</text>
  <text x="832" y="666" fill="#322417" font-size="22" font-family="Georgia, serif">Karpathy's repo matters here because it turns</text>
  <text x="832" y="698" fill="#322417" font-size="22" font-family="Georgia, serif">thinking into repeatable scaffolding, not just advice.</text>
</svg>
